<svg xmlns="http://www.w3.org/2000/svg" viewBox="0 0 1080 1440" width="1080" height="1440">
<rect width="1080" height="1440" fill="#fffef8"/><text x="64" y="100" font-family="Noto Sans CJK SC, PingFang SC, Microsoft YaHei, sans-serif" font-size="76" font-weight="800" fill="#4a90e2" text-anchor="start" opacity="1.0">AI 的七层关系</text><rect x="64" y="114" width="416" height="7" rx="3" fill="#f7d154"/><text x="64" y="170" font-family="Noto Sans CJK SC, PingFang SC, Microsoft YaHei, sans-serif" font-size="26" font-weight="400" fill="#2d2d2d" text-anchor="start" opacity="1.0">你说出</text><text x="150" y="170" font-family="Noto Sans CJK SC, PingFang SC, Microsoft YaHei, sans-serif" font-size="26" font-weight="400" fill="#f5a623" text-anchor="start" opacity="1.0">提示词</text><text x="236" y="170" font-family="Noto Sans CJK SC, PingFang SC, Microsoft YaHei, sans-serif" font-size="26" font-weight="400" fill="#2d2d2d" text-anchor="start" opacity="1.0">，交给</text><text x="322" y="170" font-family="Noto Sans CJK SC, PingFang SC, Microsoft YaHei, sans-serif" font-size="26" font-weight="400" fill="#f5a623" text-anchor="start" opacity="1.0">Agent</text><text x="464" y="170" font-family="Noto Sans CJK SC, PingFang SC, Microsoft YaHei, sans-serif" font-size="26" font-weight="400" fill="#2d2d2d" text-anchor="start" opacity="1.0">大管家；</text><text x="64" y="222" font-family="Noto Sans CJK SC, PingFang SC, Microsoft YaHei, sans-serif" font-size="26" font-weight="400" fill="#2d2d2d" text-anchor="start" opacity="1.0">所有沟通内容拆成</text><text x="290" y="222" font-family="Noto Sans CJK SC, PingFang SC, Microsoft YaHei, sans-serif" font-size="26" font-weight="400" fill="#50b87c" text-anchor="start" opacity="1.0">Token</text><text x="432" y="222" font-family="Noto Sans CJK SC, PingFang SC, Microsoft YaHei, sans-serif" font-size="26" font-weight="400" fill="#2d2d2d" text-anchor="start" opacity="1.0">记录，全部存入</text><text x="630" y="222" font-family="Noto Sans CJK SC, PingFang SC, Microsoft YaHei, sans-serif" font-size="26" font-weight="400" fill="#50b87c" text-anchor="start" opacity="1.0">上下文</text><text x="716" y="222" font-family="Noto Sans CJK SC, PingFang SC, Microsoft YaHei, sans-serif" font-size="26" font-weight="400" fill="#2d2d2d" text-anchor="start" opacity="1.0">备忘录；</text><text x="64" y="274" font-family="Noto Sans CJK SC, PingFang SC, Microsoft YaHei, sans-serif" font-size="26" font-weight="400" fill="#8b6ec9" text-anchor="start" opacity="1.0">Harness</text><text x="262" y="274" font-family="Noto Sans CJK SC, PingFang SC, Microsoft YaHei, sans-serif" font-size="26" font-weight="400" fill="#2d2d2d" text-anchor="start" opacity="1.0">家规全程约束管家行为，不乱干活；</text><text x="64" y="326" font-family="Noto Sans CJK SC, PingFang SC, Microsoft YaHei, sans-serif" font-size="26" font-weight="400" fill="#2d2d2d" text-anchor="start" opacity="1.0">管家通过</text><text x="178" y="326" font-family="Noto Sans CJK SC, PingFang SC, Microsoft YaHei, sans-serif" font-size="26" font-weight="400" fill="#e86c60" text-anchor="start" opacity="1.0">MCP</text><text x="264" y="326" font-family="Noto Sans CJK SC, PingFang SC, Microsoft YaHei, sans-serif" font-size="26" font-weight="400" fill="#2d2d2d" text-anchor="start" opacity="1.0">联络中枢，外接各类资源；</text><text x="64" y="378" font-family="Noto Sans CJK SC, PingFang SC, Microsoft YaHei, sans-serif" font-size="26" font-weight="400" fill="#2d2d2d" text-anchor="start" opacity="1.0">再调用自身的</text><text x="234" y="378" font-family="Noto Sans CJK SC, PingFang SC, Microsoft YaHei, sans-serif" font-size="26" font-weight="400" fill="#f5a623" text-anchor="start" opacity="1.0">Skills</text><text x="404" y="378" font-family="Noto Sans CJK SC, PingFang SC, Microsoft YaHei, sans-serif" font-size="26" font-weight="400" fill="#2d2d2d" text-anchor="start" opacity="1.0">技能，一步步自主完成你交代的所有任务</text><polygon points="564,1264 594,1234 114,1234 84,1264" fill="#e1920f" stroke="#555555" stroke-width="1.5" opacity="0.6"/><rect x="84" y="1172" width="480" height="92" rx="10" ry="10" fill="#ffffff" stroke="#555555" stroke-width=1.8" stroke-linejoin="round"/><polygon points="84,1172 114,1142 594,1142 564,1172" fill="none" stroke="#555555" stroke-width="1.5" opacity="0.4"/><circle cx="128" cy="1218" r="22" fill="#f5a623"/><text x="128" y="1226" font-family="Noto Sans CJK SC, PingFang SC, Microsoft YaHei, sans-serif" font-size="26" font-weight="800" fill="#ffffff" text-anchor="middle">7</text><g transform="translate(184,1196)"><g transform="translate(0,0) scale(0.600000)"><circle cx="20" cy="20" r="20" fill="#50b87c" opacity="0.15"/><circle cx="20" cy="20" r="20" fill="none" stroke="#50b87c" stroke-width="2.5"/><path d="M10 21 L17 28 L31 12" fill="none" stroke="#50b87c" stroke-width="3.5" stroke-linecap="round" stroke-linejoin="round"/></g></g><text x="234" y="1216" font-family="Noto Sans CJK SC, PingFang SC, Microsoft YaHei, sans-serif" font-size="26" font-weight="800" fill="#2d2d2d" text-anchor="start" opacity="1.0">Skills</text><text x="234" y="1246" font-family="Noto Sans CJK SC, PingFang SC, Microsoft YaHei, sans-serif" font-size="16" font-weight="400" fill="#555555" text-anchor="start" opacity="1.0">可复用的能力与经验</text><polygon points="600,1172 630,1142 150,1142 120,1172" fill="#d4584c" stroke="#555555" stroke-width="1.5" opacity="0.6"/><rect x="120" y="1080" width="480" height="92" rx="10" ry="10" fill="#ffffff" stroke="#555555" stroke-width=1.8" stroke-linejoin="round"/><polygon points="120,1080 150,1050 630,1050 600,1080" fill="none" stroke="#555555" stroke-width="1.5" opacity="0.4"/><circle cx="164" cy="1126" r="22" fill="#e86c60"/><text x="164" y="1134" font-family="Noto Sans CJK SC, PingFang SC, Microsoft YaHei, sans-serif" font-size="26" font-weight="800" fill="#ffffff" text-anchor="middle">6</text><g transform="translate(220,1104)"><g transform="translate(0,0) scale(0.550000)"><path d="M8 52 L36 24 A16 16 0 1 1 52 8 L24 36 L8 52Z" fill="#f5a623" stroke="#555555" stroke-width="2"/><circle cx="46" cy="14" r="8" fill="none" stroke="#555555" stroke-width="2"/></g></g><text x="270" y="1124" font-family="Noto Sans CJK SC, PingFang SC, Microsoft YaHei, sans-serif" font-size="26" font-weight="800" fill="#2d2d2d" text-anchor="start" opacity="1.0">MCP</text><text x="270" y="1154" font-family="Noto Sans CJK SC, PingFang SC, Microsoft YaHei, sans-serif" font-size="16" font-weight="400" fill="#555555" text-anchor="start" opacity="1.0">连接与扩展的协议层</text><polygon points="636,1080 666,1050 186,1050 156,1080" fill="#775ab5" stroke="#555555" stroke-width="1.5" opacity="0.6"/><rect x="156" y="988" width="480" height="92" rx="10" ry="10" fill="#ffffff" stroke="#555555" stroke-width=1.8" stroke-linejoin="round"/><polygon points="156,988 186,958 666,958 636,988" fill="none" stroke="#555555" stroke-width="1.5" opacity="0.4"/><circle cx="200" cy="1034" r="22" fill="#8b6ec9"/><text x="200" y="1042" font-family="Noto Sans CJK SC, PingFang SC, Microsoft YaHei, sans-serif" font-size="26" font-weight="800" fill="#ffffff" text-anchor="middle">5</text><g transform="translate(256,1012)"><g transform="translate(0,0) scale(0.600000)"><rect x="24.0" y="-6.0" width="8" height="12" rx="3" fill="#8b6ec9" transform="rotate(0.0 28.0 0.0)" opacity="0.9"/><rect x="15.8" y="13.8" width="8" height="12" rx="3" fill="#8b6ec9" transform="rotate(45.0 19.8 19.8)" opacity="0.9"/><rect x="-4.0" y="22.0" width="8" height="12" rx="3" fill="#8b6ec9" transform="rotate(90.0 0.0 28.0)" opacity="0.9"/><rect x="-23.8" y="13.8" width="8" height="12" rx="3" fill="#8b6ec9" transform="rotate(135.0 -19.8 19.8)" opacity="0.9"/><rect x="-32.0" y="-6.0" width="8" height="12" rx="3" fill="#8b6ec9" transform="rotate(180.0 -28.0 0.0)" opacity="0.9"/><rect x="-23.8" y="-25.8" width="8" height="12" rx="3" fill="#8b6ec9" transform="rotate(225.0 -19.8 -19.8)" opacity="0.9"/><rect x="-4.0" y="-34.0" width="8" height="12" rx="3" fill="#8b6ec9" transform="rotate(270.0 -0.0 -28.0)" opacity="0.9"/><rect x="15.8" y="-25.8" width="8" height="12" rx="3" fill="#8b6ec9" transform="rotate(315.0 19.8 -19.8)" opacity="0.9"/><circle cx="0" cy="0" r="14" fill="#8b6ec9" stroke="#555555" stroke-width="2"/><circle cx="0" cy="0" r="8" fill="#fefefe" stroke="#555555" stroke-width="1.5"/></g></g><text x="306" y="1032" font-family="Noto Sans CJK SC, PingFang SC, Microsoft YaHei, sans-serif" font-size="26" font-weight="800" fill="#2d2d2d" text-anchor="start" opacity="1.0">Harness</text><text x="306" y="1062" font-family="Noto Sans CJK SC, PingFang SC, Microsoft YaHei, sans-serif" font-size="16" font-weight="400" fill="#555555" text-anchor="start" opacity="1.0">编排与运行的工程框架</text><polygon points="672,988 702,958 222,958 192,988" fill="#e1920f" stroke="#555555" stroke-width="1.5" opacity="0.6"/><rect x="192" y="896" width="480" height="92" rx="10" ry="10" fill="#ffffff" stroke="#555555" stroke-width=1.8" stroke-linejoin="round"/><polygon points="192,896 222,866 702,866 672,896" fill="none" stroke="#555555" stroke-width="1.5" opacity="0.4"/><circle cx="236" cy="942" r="22" fill="#f5a623"/><text x="236" y="950" font-family="Noto Sans CJK SC, PingFang SC, Microsoft YaHei, sans-serif" font-size="26" font-weight="800" fill="#ffffff" text-anchor="middle">4</text><g transform="translate(292,920)"><g transform="translate(0,0) scale(0.550000)"><rect x="0" y="16" width="80" height="32" rx="10" fill="#f5a623" stroke="#555555" stroke-width="2"/><path d="M18 16 Q30 -4 54 -4 Q70 -4 76 16 Z" fill="#f5a623" stroke="#555555" stroke-width="2"/><path d="M22 14 Q32 0 48 0 Q62 0 68 14 Z" fill="#e8f0fe" opacity="0.7"/><circle cx="22" cy="52" r="12" fill="#2d2d2d" stroke="#f5a623" stroke-width="3"/><circle cx="58" cy="52" r="12" fill="#2d2d2d" stroke="#f5a623" stroke-width="3"/><circle cx="22" cy="52" r="5" fill="#ddd"/><circle cx="58" cy="52" r="5" fill="#ddd"/><circle cx="78" cy="34" r="4" fill="#fff3cd"/></g></g><text x="342" y="940" font-family="Noto Sans CJK SC, PingFang SC, Microsoft YaHei, sans-serif" font-size="26" font-weight="800" fill="#2d2d2d" text-anchor="start" opacity="1.0">Agent</text><text x="342" y="970" font-family="Noto Sans CJK SC, PingFang SC, Microsoft YaHei, sans-serif" font-size="16" font-weight="400" fill="#555555" text-anchor="start" opacity="1.0">自主决策与执行的智能体</text><polygon points="708,896 738,866 258,866 228,896" fill="#3ca468" stroke="#555555" stroke-width="1.5" opacity="0.6"/><rect x="228" y="804" width="480" height="92" rx="10" ry="10" fill="#ffffff" stroke="#555555" stroke-width=1.8" stroke-linejoin="round"/><polygon points="228,804 258,774 738,774 708,804" fill="none" stroke="#555555" stroke-width="1.5" opacity="0.4"/><circle cx="272" cy="850" r="22" fill="#50b87c"/><text x="272" y="858" font-family="Noto Sans CJK SC, PingFang SC, Microsoft YaHei, sans-serif" font-size="26" font-weight="800" fill="#ffffff" text-anchor="middle">3</text><g transform="translate(328,828)"><g transform="translate(0,0) scale(0.550000)"><path d="M0 8 Q20 0 40 8 L40 56 Q20 48 0 56Z" fill="#7eb3f0" stroke="#555555" stroke-width="2"/><path d="M40 8 Q60 0 80 8 L80 56 Q60 48 40 56Z" fill="#4a90e2" stroke="#555555" stroke-width="2"/><line x1="40" y1="8" x2="40" y2="56" stroke="#555555" stroke-width="2"/><line x1="8" y1="20" x2="32" y2="20" stroke="#555555" stroke-width="1.5" opacity="0.4"/><line x1="48" y1="20" x2="72" y2="20" stroke="#555555" stroke-width="1.5" opacity="0.4"/><line x1="8" y1="30" x2="32" y2="30" stroke="#555555" stroke-width="1.5" opacity="0.4"/><line x1="48" y1="30" x2="72" y2="30" stroke="#555555" stroke-width="1.5" opacity="0.4"/><line x1="8" y1="40" x2="32" y2="40" stroke="#555555" stroke-width="1.5" opacity="0.4"/><line x1="48" y1="40" x2="72" y2="40" stroke="#555555" stroke-width="1.5" opacity="0.4"/></g></g><text x="378" y="848" font-family="Noto Sans CJK SC, PingFang SC, Microsoft YaHei, sans-serif" font-size="26" font-weight="800" fill="#2d2d2d" text-anchor="start" opacity="1.0">上下文</text><text x="378" y="878" font-family="Noto Sans CJK SC, PingFang SC, Microsoft YaHei, sans-serif" font-size="16" font-weight="400" fill="#555555" text-anchor="start" opacity="1.0">提供相关背景信息</text><polygon points="744,804 774,774 294,774 264,804" fill="#367cce" stroke="#555555" stroke-width="1.5" opacity="0.6"/><rect x="264" y="712" width="480" height="92" rx="10" ry="10" fill="#ffffff" stroke="#555555" stroke-width=1.8" stroke-linejoin="round"/><polygon points="264,712 294,682 774,682 744,712" fill="none" stroke="#555555" stroke-width="1.5" opacity="0.4"/><circle cx="308" cy="758" r="22" fill="#4a90e2"/><text x="308" y="766" font-family="Noto Sans CJK SC, PingFang SC, Microsoft YaHei, sans-serif" font-size="26" font-weight="800" fill="#ffffff" text-anchor="middle">2</text><g transform="translate(364,736)"><g transform="translate(0,0) scale(0.550000)"><path d="M0 0 Q0 -24 28 -24 L56 -24 Q84 -24 84 0 Q84 24 56 24 L20 24 L4 38 L10 24 L0 24Q0 24 0 0Z" fill="#50b87c" stroke="#555555" stroke-width="2"/><line x1="16" y1="-4" x2="68" y2="-4" stroke="#fff" stroke-width="2.5" opacity="0.7"/><line x1="16" y1="8" x2="52" y2="8" stroke="#fff" stroke-width="2.5" opacity="0.7"/></g></g><text x="414" y="756" font-family="Noto Sans CJK SC, PingFang SC, Microsoft YaHei, sans-serif" font-size="26" font-weight="800" fill="#2d2d2d" text-anchor="start" opacity="1.0">提示词</text><text x="414" y="786" font-family="Noto Sans CJK SC, PingFang SC, Microsoft YaHei, sans-serif" font-size="16" font-weight="400" fill="#555555" text-anchor="start" opacity="1.0">告诉模型要做什么</text><polygon points="780,712 810,682 330,682 300,712" fill="#775ab5" stroke="#555555" stroke-width="1.5" opacity="0.6"/><rect x="300" y="620" width="480" height="92" rx="10" ry="10" fill="#ffffff" stroke="#555555" stroke-width=1.8" stroke-linejoin="round"/><polygon points="300,620 330,590 810,590 780,620" fill="none" stroke="#555555" stroke-width="1.5" opacity="0.4"/><circle cx="344" cy="666" r="22" fill="#8b6ec9"/><text x="344" y="674" font-family="Noto Sans CJK SC, PingFang SC, Microsoft YaHei, sans-serif" font-size="26" font-weight="800" fill="#ffffff" text-anchor="middle">1</text><g transform="translate(400,644)"><g transform="translate(0,0) scale(0.600000)"><rect x="24.0" y="-6.0" width="8" height="12" rx="3" fill="#8b6ec9" transform="rotate(0.0 28.0 0.0)" opacity="0.9"/><rect x="15.8" y="13.8" width="8" height="12" rx="3" fill="#8b6ec9" transform="rotate(45.0 19.8 19.8)" opacity="0.9"/><rect x="-4.0" y="22.0" width="8" height="12" rx="3" fill="#8b6ec9" transform="rotate(90.0 0.0 28.0)" opacity="0.9"/><rect x="-23.8" y="13.8" width="8" height="12" rx="3" fill="#8b6ec9" transform="rotate(135.0 -19.8 19.8)" opacity="0.9"/><rect x="-32.0" y="-6.0" width="8" height="12" rx="3" fill="#8b6ec9" transform="rotate(180.0 -28.0 0.0)" opacity="0.9"/><rect x="-23.8" y="-25.8" width="8" height="12" rx="3" fill="#8b6ec9" transform="rotate(225.0 -19.8 -19.8)" opacity="0.9"/><rect x="-4.0" y="-34.0" width="8" height="12" rx="3" fill="#8b6ec9" transform="rotate(270.0 -0.0 -28.0)" opacity="0.9"/><rect x="15.8" y="-25.8" width="8" height="12" rx="3" fill="#8b6ec9" transform="rotate(315.0 19.8 -19.8)" opacity="0.9"/><circle cx="0" cy="0" r="14" fill="#8b6ec9" stroke="#555555" stroke-width="2"/><circle cx="0" cy="0" r="8" fill="#fefefe" stroke="#555555" stroke-width="1.5"/></g></g><text x="450" y="664" font-family="Noto Sans CJK SC, PingFang SC, Microsoft YaHei, sans-serif" font-size="26" font-weight="800" fill="#2d2d2d" text-anchor="start" opacity="1.0">Token</text><text x="450" y="694" font-family="Noto Sans CJK SC, PingFang SC, Microsoft YaHei, sans-serif" font-size="16" font-weight="400" fill="#555555" text-anchor="start" opacity="1.0">模型理解的最小单位</text><path d="M64,1324 Q34,1264 64,1204" fill="none" stroke="#4a90e2" stroke-width="3" stroke-dasharray="8 6" opacity="0.7"/><path d="M56,1216 L64,1204 L76,1212" fill="none" stroke="#4a90e2" stroke-width="3" stroke-linecap="round"/><g transform="translate(836,1224)" opacity="0.6"><ellipse cx="0" cy="20" rx="18" ry="8" fill="#50b87c" opacity="0.3"/><path d="M0 20 Q-10 0 -4 -16 M0 20 Q10 0 4 -16 M0 20 Q0 -5 0 -18" fill="none" stroke="#50b87c" stroke-width="2.5"/><circle cx="-4" cy="-16" r="4" fill="#50b87c" opacity="0.6"/><circle cx="4" cy="-16" r="4" fill="#50b87c" opacity="0.6"/><circle cx="0" cy="-18" r="4" fill="#50b87c" opacity="0.6"/></g><g transform="translate(886,1204)"><path d="M0-12 Q0 0 12 0 Q0 0 0 12 Q0 0 -12 0 Q0 0 0-12Z" fill="#f7d154" opacity="0.5"/></g><g transform="translate(906,1184)"><path d="M0-8 Q0 0 8 0 Q0 0 0 8 Q0 0 -8 0 Q0 0 0-8Z" fill="#f7d154" opacity="0.5"/></g><g transform="translate(926,1214)"><path d="M0-6 Q0 0 6 0 Q0 0 0 6 Q0 0 -6 0 Q0 0 0-6Z" fill="#f7d154" opacity="0.5"/></g><text x="1016" y="1390" font-family="Noto Sans CJK SC, PingFang SC, Microsoft YaHei, sans-serif" font-size="18" font-weight="400" fill="#555555" text-anchor="end" opacity="0.7">《智驾时代：Agent 进化简史》</text>
</svg>