<svg xmlns="http://www.w3.org/2000/svg" viewBox="0 0 1080 1440" width="1080" height="1440">
<rect width="1080" height="1440" fill="#fffef8"/><text x="64" y="80" font-family="Noto Sans CJK SC, PingFang SC, Microsoft YaHei, sans-serif" font-size="64" font-weight="800" fill="#8b6ec9" text-anchor="start" opacity="1.0">04  </text><text x="154" y="80" font-family="Noto Sans CJK SC, PingFang SC, Microsoft YaHei, sans-serif" font-size="64" font-weight="800" fill="#2d2d2d" text-anchor="start" opacity="1.0">三重悖论</text><rect x="64" y="94" width="888" height="7" rx="3" fill="#e88fb0"/><text x="64" y="155" font-family="Noto Sans CJK SC, PingFang SC, Microsoft YaHei, sans-serif" font-size="23" font-weight="500" fill="#555555" text-anchor="start" opacity="1.0">越聪明的 Agent，反而越矛盾？三个「反过来」拆不开</text><rect x="64" y="210" width="952" height="320" rx="18" ry="18" fill="#ffffff" stroke="#f5a623" stroke-width=2.0" stroke-linejoin="round"/><rect x="64" y="210" width="952" height="8" rx="4" fill="#f5a623"/><g transform="translate(114,340) scale(1.000000)"><path d="M0 8 Q20 0 40 8 L40 56 Q20 48 0 56Z" fill="#7eb3f0" stroke="#555555" stroke-width="2"/><path d="M40 8 Q60 0 80 8 L80 56 Q60 48 40 56Z" fill="#4a90e2" stroke="#555555" stroke-width="2"/><line x1="40" y1="8" x2="40" y2="56" stroke="#555555" stroke-width="2"/><line x1="8" y1="20" x2="32" y2="20" stroke="#555555" stroke-width="1.5" opacity="0.4"/><line x1="48" y1="20" x2="72" y2="20" stroke="#555555" stroke-width="1.5" opacity="0.4"/><line x1="8" y1="30" x2="32" y2="30" stroke="#555555" stroke-width="1.5" opacity="0.4"/><line x1="48" y1="30" x2="72" y2="30" stroke="#555555" stroke-width="1.5" opacity="0.4"/><line x1="8" y1="40" x2="32" y2="40" stroke="#555555" stroke-width="1.5" opacity="0.4"/><line x1="48" y1="40" x2="72" y2="40" stroke="#555555" stroke-width="1.5" opacity="0.4"/></g><text x="184" y="260" font-family="Noto Sans CJK SC, PingFang SC, Microsoft YaHei, sans-serif" font-size="30" font-weight="800" fill="#f5a623" text-anchor="start" opacity="1.0">1 记忆悖论</text><text x="184" y="300" font-family="Noto Sans CJK SC, PingFang SC, Microsoft YaHei, sans-serif" font-size="22" font-weight="600" fill="#2d2d2d" text-anchor="start" opacity="1.0">记越多，反而越糊涂</text><text x="184" y="340" font-family="Noto Sans CJK SC, PingFang SC, Microsoft YaHei, sans-serif" font-size="19" font-weight="400" fill="#555555" text-anchor="start" opacity="1.0">*  记忆的核心不是「存储」，而是「选择」</text><text x="184" y="378" font-family="Noto Sans CJK SC, PingFang SC, Microsoft YaHei, sans-serif" font-size="19" font-weight="400" fill="#555555" text-anchor="start" opacity="1.0">*  信息塞太满，有用的那条反而不显眼</text><text x="184" y="416" font-family="Noto Sans CJK SC, PingFang SC, Microsoft YaHei, sans-serif" font-size="19" font-weight="400" fill="#555555" text-anchor="start" opacity="1.0">*  业界现在拼的是「谁忘得聪明」，不是谁记得多</text><rect x="64" y="554" width="952" height="320" rx="18" ry="18" fill="#ffffff" stroke="#8b6ec9" stroke-width=2.0" stroke-linejoin="round"/><rect x="64" y="554" width="952" height="8" rx="4" fill="#8b6ec9"/><g transform="translate(114,684) scale(1.000000)"><rect x="24.0" y="-6.0" width="8" height="12" rx="3" fill="#8b6ec9" transform="rotate(0.0 28.0 0.0)" opacity="0.9"/><rect x="15.8" y="13.8" width="8" height="12" rx="3" fill="#8b6ec9" transform="rotate(45.0 19.8 19.8)" opacity="0.9"/><rect x="-4.0" y="22.0" width="8" height="12" rx="3" fill="#8b6ec9" transform="rotate(90.0 0.0 28.0)" opacity="0.9"/><rect x="-23.8" y="13.8" width="8" height="12" rx="3" fill="#8b6ec9" transform="rotate(135.0 -19.8 19.8)" opacity="0.9"/><rect x="-32.0" y="-6.0" width="8" height="12" rx="3" fill="#8b6ec9" transform="rotate(180.0 -28.0 0.0)" opacity="0.9"/><rect x="-23.8" y="-25.8" width="8" height="12" rx="3" fill="#8b6ec9" transform="rotate(225.0 -19.8 -19.8)" opacity="0.9"/><rect x="-4.0" y="-34.0" width="8" height="12" rx="3" fill="#8b6ec9" transform="rotate(270.0 -0.0 -28.0)" opacity="0.9"/><rect x="15.8" y="-25.8" width="8" height="12" rx="3" fill="#8b6ec9" transform="rotate(315.0 19.8 -19.8)" opacity="0.9"/><circle cx="0" cy="0" r="14" fill="#8b6ec9" stroke="#555555" stroke-width="2"/><circle cx="0" cy="0" r="8" fill="#fefefe" stroke="#555555" stroke-width="1.5"/></g><text x="184" y="604" font-family="Noto Sans CJK SC, PingFang SC, Microsoft YaHei, sans-serif" font-size="30" font-weight="800" fill="#8b6ec9" text-anchor="start" opacity="1.0">2 推理悖论</text><text x="184" y="644" font-family="Noto Sans CJK SC, PingFang SC, Microsoft YaHei, sans-serif" font-size="22" font-weight="600" fill="#2d2d2d" text-anchor="start" opacity="1.0">脚手架越复杂，故障越多</text><text x="184" y="684" font-family="Noto Sans CJK SC, PingFang SC, Microsoft YaHei, sans-serif" font-size="19" font-weight="400" fill="#555555" text-anchor="start" opacity="1.0">*  用 Harness 补模型推理的不足</text><text x="184" y="722" font-family="Noto Sans CJK SC, PingFang SC, Microsoft YaHei, sans-serif" font-size="19" font-weight="400" fill="#555555" text-anchor="start" opacity="1.0">*  但脚手架本身会制造新问题</text><text x="184" y="760" font-family="Noto Sans CJK SC, PingFang SC, Microsoft YaHei, sans-serif" font-size="19" font-weight="400" fill="#555555" text-anchor="start" opacity="1.0">*  补一个洞，可能在别处戳出三个洞</text><rect x="64" y="898" width="952" height="320" rx="18" ry="18" fill="#ffffff" stroke="#e86c60" stroke-width=2.0" stroke-linejoin="round"/><rect x="64" y="898" width="952" height="8" rx="4" fill="#e86c60"/><g transform="translate(114,1028) scale(1.000000)"><path d="M0 -32 A32 32 0 1 1 -22 -22" fill="none" stroke="#8b6ec9" stroke-width="4" stroke-linecap="round"/><path d="M-22 -22 l -4 10 l12 -2 z" fill="#8b6ec9"/><circle r="20" fill="none" stroke="#8b6ec9" stroke-width="2" stroke-dasharray="6 4" opacity="0.5"/><circle r="6" fill="#8b6ec9" opacity="0.3"/></g><text x="184" y="948" font-family="Noto Sans CJK SC, PingFang SC, Microsoft YaHei, sans-serif" font-size="30" font-weight="800" fill="#e86c60" text-anchor="start" opacity="1.0">3 进化悖论</text><text x="184" y="988" font-family="Noto Sans CJK SC, PingFang SC, Microsoft YaHei, sans-serif" font-size="22" font-weight="600" fill="#2d2d2d" text-anchor="start" opacity="1.0">想改自己，谁来当裁判？</text><text x="184" y="1028" font-family="Noto Sans CJK SC, PingFang SC, Microsoft YaHei, sans-serif" font-size="19" font-weight="400" fill="#555555" text-anchor="start" opacity="1.0">*  Agent 想自己改进自己</text><text x="184" y="1066" font-family="Noto Sans CJK SC, PingFang SC, Microsoft YaHei, sans-serif" font-size="19" font-weight="400" fill="#555555" text-anchor="start" opacity="1.0">*  但自己评自己，越评越高（退化循环）</text><text x="184" y="1104" font-family="Noto Sans CJK SC, PingFang SC, Microsoft YaHei, sans-serif" font-size="19" font-weight="400" fill="#555555" text-anchor="start" opacity="1.0">*  只有引入更高层的外部验证，改进才持久</text><rect x="94" y="1240" width="892" height="100" rx="16" ry="16" fill="#faf0ff" stroke="#8b6ec9" stroke-width=2.0" stroke-linejoin="round"/><text x="540" y="1298" font-family="Noto Sans CJK SC, PingFang SC, Microsoft YaHei, sans-serif" font-size="20" font-weight="550" fill="#2d2d2d" text-anchor="middle" opacity="1.0">三者互相缠绕形成闭环：记忆需要推理筛选 -&gt; 推理需要记忆 -&gt; 进化需要两者评估</text><text x="1016" y="1390" font-family="Noto Sans CJK SC, PingFang SC, Microsoft YaHei, sans-serif" font-size="18" font-weight="400" fill="#555555" text-anchor="end" opacity="0.7">《智驾时代：Agent 进化简史》</text>
</svg>