<svg xmlns="http://www.w3.org/2000/svg" viewBox="0 0 1080 1440" width="1080" height="1440">

  <defs>
    <linearGradient id="bg" x1="0%" y1="0%" x2="100%" y2="100%">
      <stop offset="0%" style="stop-color:#1a0a2e"/>
      <stop offset="50%" style="stop-color:#2d1b4e"/>
      <stop offset="100%" style="stop-color:#1a0a2e"/>
    </linearGradient>
    <linearGradient id="acc" x1="0%" y1="0%" x2="100%" y2="0%">
      <stop offset="0%" style="stop-color:#ff7043"/>
      <stop offset="50%" style="stop-color:#ffa726"/>
      <stop offset="100%" style="stop-color:#66bb6a"/>
    </linearGradient>
    <linearGradient id="accV" x1="0%" y1="0%" x2="0%" y2="100%">
      <stop offset="0%" style="stop-color:#ff7043"/>
      <stop offset="100%" style="stop-color:#66bb6a"/>
    </linearGradient>
    <radialGradient id="glow" cx="50%" cy="50%" r="50%">
      <stop offset="0%" style="stop-color:#ffa726;stop-opacity:0.30"/>
      <stop offset="100%" style="stop-color:#ffa726;stop-opacity:0"/>
    </radialGradient>
    <filter id="soft" x="-30%" y="-30%" width="160%" height="160%">
      <feDropShadow dx="0" dy="8" stdDeviation="10" flood-color="#000000" flood-opacity="0.5"/>
    </filter>
    <filter id="blur"><feGaussianBlur stdDeviation="8"/></filter>
    <marker id="arA" viewBox="0 0 10 10" refX="8.5" refY="5" markerWidth="7" markerHeight="7" orient="auto-start-reverse">
      <path d="M0,0 L10,5 L0,10 z" fill="#ffa726"/></marker>
  </defs>
<rect width="1080" height="1440" rx="0" fill="url(#bg)"/><line x1="72" y1="0" x2="72" y2="1440" stroke="#ffffff" stroke-width="1" opacity="0.025"/><line x1="144" y1="0" x2="144" y2="1440" stroke="#ffffff" stroke-width="1" opacity="0.025"/><line x1="216" y1="0" x2="216" y2="1440" stroke="#ffffff" stroke-width="1" opacity="0.025"/><line x1="288" y1="0" x2="288" y2="1440" stroke="#ffffff" stroke-width="1" opacity="0.025"/><line x1="360" y1="0" x2="360" y2="1440" stroke="#ffffff" stroke-width="1" opacity="0.025"/><line x1="432" y1="0" x2="432" y2="1440" stroke="#ffffff" stroke-width="1" opacity="0.025"/><line x1="504" y1="0" x2="504" y2="1440" stroke="#ffffff" stroke-width="1" opacity="0.025"/><line x1="576" y1="0" x2="576" y2="1440" stroke="#ffffff" stroke-width="1" opacity="0.025"/><line x1="648" y1="0" x2="648" y2="1440" stroke="#ffffff" stroke-width="1" opacity="0.025"/><line x1="720" y1="0" x2="720" y2="1440" stroke="#ffffff" stroke-width="1" opacity="0.025"/><line x1="792" y1="0" x2="792" y2="1440" stroke="#ffffff" stroke-width="1" opacity="0.025"/><line x1="864" y1="0" x2="864" y2="1440" stroke="#ffffff" stroke-width="1" opacity="0.025"/><line x1="936" y1="0" x2="936" y2="1440" stroke="#ffffff" stroke-width="1" opacity="0.025"/><line x1="1008" y1="0" x2="1008" y2="1440" stroke="#ffffff" stroke-width="1" opacity="0.025"/><line x1="0" y1="72" x2="1080" y2="72" stroke="#ffffff" stroke-width="1" opacity="0.025"/><line x1="0" y1="144" x2="1080" y2="144" stroke="#ffffff" stroke-width="1" opacity="0.025"/><line x1="0" y1="216" x2="1080" y2="216" stroke="#ffffff" stroke-width="1" opacity="0.025"/><line x1="0" y1="288" x2="1080" y2="288" stroke="#ffffff" stroke-width="1" opacity="0.025"/><line x1="0" y1="360" x2="1080" y2="360" stroke="#ffffff" stroke-width="1" opacity="0.025"/><line x1="0" y1="432" x2="1080" y2="432" stroke="#ffffff" stroke-width="1" opacity="0.025"/><line x1="0" y1="504" x2="1080" y2="504" stroke="#ffffff" stroke-width="1" opacity="0.025"/><line x1="0" y1="576" x2="1080" y2="576" stroke="#ffffff" stroke-width="1" opacity="0.025"/><line x1="0" y1="648" x2="1080" y2="648" stroke="#ffffff" stroke-width="1" opacity="0.025"/><line x1="0" y1="720" x2="1080" y2="720" stroke="#ffffff" stroke-width="1" opacity="0.025"/><line x1="0" y1="792" x2="1080" y2="792" stroke="#ffffff" stroke-width="1" opacity="0.025"/><line x1="0" y1="864" x2="1080" y2="864" stroke="#ffffff" stroke-width="1" opacity="0.025"/><line x1="0" y1="936" x2="1080" y2="936" stroke="#ffffff" stroke-width="1" opacity="0.025"/><line x1="0" y1="1008" x2="1080" y2="1008" stroke="#ffffff" stroke-width="1" opacity="0.025"/><line x1="0" y1="1080" x2="1080" y2="1080" stroke="#ffffff" stroke-width="1" opacity="0.025"/><line x1="0" y1="1152" x2="1080" y2="1152" stroke="#ffffff" stroke-width="1" opacity="0.025"/><line x1="0" y1="1224" x2="1080" y2="1224" stroke="#ffffff" stroke-width="1" opacity="0.025"/><line x1="0" y1="1296" x2="1080" y2="1296" stroke="#ffffff" stroke-width="1" opacity="0.025"/><line x1="0" y1="1368" x2="1080" y2="1368" stroke="#ffffff" stroke-width="1" opacity="0.025"/><circle cx="960" cy="150" r="260" fill="#ffa726" opacity="0.22" filter="url(#blur)"/><circle cx="120" cy="1280" r="240" fill="#ff7043" opacity="0.16" filter="url(#blur)"/><g transform="translate(990,1330)" opacity="0.18"><circle r="120" fill="none" stroke="#ff7043" stroke-width="2" stroke-dasharray="10 8"/><circle r="78" fill="none" stroke="#ffa726" stroke-width="2" stroke-dasharray="9 7"/><circle r="40" fill="none" stroke="#66bb6a" stroke-width="2"/></g><rect x="72" y="64" width="272.76" height="45" rx="22.5" fill="#66bb6a"/><text x="208.38" y="94.78" font-family="Inter, 'Noto Sans CJK SC', 'PingFang SC', 'Microsoft YaHei', sans-serif" font-size="23" font-weight="700" fill="#15101f" text-anchor="middle" opacity="1" letter-spacing="0">新书上线 · 免费开源</text><text x="760" y="92" font-family="Inter, 'Noto Sans CJK SC', 'PingFang SC', 'Microsoft YaHei', sans-serif" font-size="20" font-weight="700" fill="#ffa726" text-anchor="start" opacity="0.95" letter-spacing="2">OPEN SOURCE</text><text x="72" y="150" font-family="Inter, 'Noto Sans CJK SC', 'PingFang SC', 'Microsoft YaHei', sans-serif" font-size="72" font-weight="800" fill="#ffffff" text-anchor="start" opacity="1" letter-spacing="0">一本能读懂的</text><text x="72" y="233" font-family="Inter, 'Noto Sans CJK SC', 'PingFang SC', 'Microsoft YaHei', sans-serif" font-size="72" font-weight="800" fill="#ffffff" text-anchor="start" opacity="1" letter-spacing="0">AI Agent 进化书</text><rect x="72" y="330" width="210" height="8" rx="4" fill="url(#acc)"/><text x="72" y="380" font-family="Inter, 'Noto Sans CJK SC', 'PingFang SC', 'Microsoft YaHei', sans-serif" font-size="26" font-weight="500" fill="#b39ddb" text-anchor="start" opacity="1" letter-spacing="0">中文图解 + 英文对照，开页即读</text><circle cx="540.0" cy="560" r="200" fill="#ffa726" opacity="0.2" filter="url(#blur)"/><g transform="translate(540.0,560)"><path d="M -260 40 Q -130 -10 0 30 L 0 150 Q -130 110 -260 160 Z" fill="#241640" stroke="#7e57c2" stroke-width="2"/><path d="M 260 40 Q 130 -10 0 30 L 0 150 Q 130 110 260 160 Z" fill="#2a1a4a" stroke="#7e57c2" stroke-width="2"/><line x1="0" y1="30" x2="0" y2="150" stroke="#7e57c2" stroke-width="2"/><path d="M -260 40 Q -130 -10 0 30" fill="none" stroke="#ffa726" stroke-width="2" opacity="0.6"/><path d="M 260 40 Q 130 -10 0 30" fill="none" stroke="#66bb6a" stroke-width="2" opacity="0.6"/><rect x="-235" y="55" width="190" height="5" rx="2.5" fill="#7e57c2" opacity="0.5"/><rect x="45" y="55" width="190" height="5" rx="2.5" fill="#7e57c2" opacity="0.5"/><rect x="-235" y="77" width="190" height="5" rx="2.5" fill="#7e57c2" opacity="0.5"/><rect x="45" y="77" width="190" height="5" rx="2.5" fill="#7e57c2" opacity="0.5"/><rect x="-235" y="99" width="190" height="5" rx="2.5" fill="#7e57c2" opacity="0.5"/><rect x="45" y="99" width="190" height="5" rx="2.5" fill="#7e57c2" opacity="0.5"/><rect x="-235" y="121" width="190" height="5" rx="2.5" fill="#7e57c2" opacity="0.5"/><rect x="45" y="121" width="190" height="5" rx="2.5" fill="#7e57c2" opacity="0.5"/><text x="-130" y="20" font-family="Inter, 'Noto Sans CJK SC', 'PingFang SC', 'Microsoft YaHei', sans-serif" font-size="40" font-weight="800" fill="#ffa726" text-anchor="middle">中</text><text x="130" y="20" font-family="Inter, 'Noto Sans CJK SC', 'PingFang SC', 'Microsoft YaHei', sans-serif" font-size="34" font-weight="800" fill="#66bb6a" text-anchor="middle">EN</text></g><rect x="72" y="880" width="400" height="92" rx="16" ry="16" fill="rgba(255,255,255,0.05)" stroke="#ffa726" stroke-width="1.5" opacity="#ffa726"/><circle cx="112" cy="926.0" r="14" fill="#ffa726"/><text x="112" y="932.0" font-family="Inter, 'Noto Sans CJK SC', 'PingFang SC', 'Microsoft YaHei', sans-serif" font-size="16" font-weight="800" fill="#15101f" text-anchor="middle" opacity="1" letter-spacing="0">●</text><text x="144" y="935.0" font-family="Inter, 'Noto Sans CJK SC', 'PingFang SC', 'Microsoft YaHei', sans-serif" font-size="28" font-weight="700" fill="#ffffff" text-anchor="start" opacity="1" letter-spacing="0">免费开源</text><rect x="502" y="880" width="400" height="92" rx="16" ry="16" fill="rgba(255,255,255,0.05)" stroke="#ff7043" stroke-width="1.5" opacity="#ff7043"/><circle cx="542" cy="926.0" r="14" fill="#ff7043"/><text x="542" y="932.0" font-family="Inter, 'Noto Sans CJK SC', 'PingFang SC', 'Microsoft YaHei', sans-serif" font-size="16" font-weight="800" fill="#15101f" text-anchor="middle" opacity="1" letter-spacing="0">●</text><text x="574" y="935.0" font-family="Inter, 'Noto Sans CJK SC', 'PingFang SC', 'Microsoft YaHei', sans-serif" font-size="28" font-weight="700" fill="#ffffff" text-anchor="start" opacity="1" letter-spacing="0">中文图解</text><rect x="72" y="972" width="400" height="92" rx="16" ry="16" fill="rgba(255,255,255,0.05)" stroke="#66bb6a" stroke-width="1.5" opacity="#66bb6a"/><circle cx="112" cy="1018.0" r="14" fill="#66bb6a"/><text x="112" y="1024.0" font-family="Inter, 'Noto Sans CJK SC', 'PingFang SC', 'Microsoft YaHei', sans-serif" font-size="16" font-weight="800" fill="#15101f" text-anchor="middle" opacity="1" letter-spacing="0">●</text><text x="144" y="1027.0" font-family="Inter, 'Noto Sans CJK SC', 'PingFang SC', 'Microsoft YaHei', sans-serif" font-size="28" font-weight="700" fill="#ffffff" text-anchor="start" opacity="1" letter-spacing="0">一手出处</text><rect x="502" y="972" width="400" height="92" rx="16" ry="16" fill="rgba(255,255,255,0.05)" stroke="##ffa726" stroke-width="1.5" opacity="##ffa726"/><circle cx="542" cy="1018.0" r="14" fill="##ffa726"/><text x="542" y="1024.0" font-family="Inter, 'Noto Sans CJK SC', 'PingFang SC', 'Microsoft YaHei', sans-serif" font-size="16" font-weight="800" fill="#15101f" text-anchor="middle" opacity="1" letter-spacing="0">●</text><text x="574" y="1027.0" font-family="Inter, 'Noto Sans CJK SC', 'PingFang SC', 'Microsoft YaHei', sans-serif" font-size="28" font-weight="700" fill="#ffffff" text-anchor="start" opacity="1" letter-spacing="0">持续更新</text><text x="540.0" y="1100" font-family="Inter, 'Noto Sans CJK SC', 'PingFang SC', 'Microsoft YaHei', sans-serif" font-size="24" font-weight="700" fill="#ffa726" text-anchor="middle" opacity="1" letter-spacing="0">现在就去 GitHub 免费读完整版 ↗</text><line x1="72" y1="1362" x2="1008" y2="1362" stroke="#7e57c2" stroke-width="1" opacity="0.4"/><text x="72" y="1388" font-family="Inter, 'Noto Sans CJK SC', 'PingFang SC', 'Microsoft YaHei', sans-serif" font-size="20" font-weight="700" fill="#ffffff" text-anchor="start" opacity="1" letter-spacing="0">智驾时代 · Agent 进化简史</text><text x="1008" y="1388" font-family="Inter, 'Noto Sans CJK SC', 'PingFang SC', 'Microsoft YaHei', sans-serif" font-size="19" font-weight="700" fill="#ffa726" text-anchor="end" opacity="1" letter-spacing="0">GitHub 免费开读 ↗</text><text x="72" y="1418" font-family="Inter, 'Noto Sans CJK SC', 'PingFang SC', 'Microsoft YaHei', sans-serif" font-size="15" font-weight="400" fill="#7e57c2" text-anchor="start" opacity="0.9" letter-spacing="0">github.com/Madapexai/agent-evolution-book</text>
</svg>