<svg xmlns="http://www.w3.org/2000/svg" viewBox="0 0 980 520" width="980" height="520">

  <defs>
    <linearGradient id="bg" x1="0%" y1="0%" x2="100%" y2="100%">
      <stop offset="0%" style="stop-color:#1a0a2e"/>
      <stop offset="50%" style="stop-color:#2d1b4e"/>
      <stop offset="100%" style="stop-color:#1a0a2e"/>
    </linearGradient>
    <linearGradient id="acc" x1="0%" y1="0%" x2="100%" y2="0%">
      <stop offset="0%" style="stop-color:#ff7043"/>
      <stop offset="50%" style="stop-color:#ffa726"/>
      <stop offset="100%" style="stop-color:#66bb6a"/>
    </linearGradient>
    <linearGradient id="accV" x1="0%" y1="0%" x2="0%" y2="100%">
      <stop offset="0%" style="stop-color:#ff7043"/>
      <stop offset="100%" style="stop-color:#66bb6a"/>
    </linearGradient>
    <radialGradient id="glow" cx="50%" cy="50%" r="50%">
      <stop offset="0%" style="stop-color:#ffa726;stop-opacity:0.35"/>
      <stop offset="100%" style="stop-color:#ffa726;stop-opacity:0"/>
    </radialGradient>
    <filter id="soft" x="-30%" y="-30%" width="160%" height="160%">
      <feDropShadow dx="0" dy="6" stdDeviation="8" flood-color="#000000" flood-opacity="0.45"/>
    </filter>
    <filter id="blur"><feGaussianBlur stdDeviation="6"/></filter>
    <marker id="ar" viewBox="0 0 10 10" refX="8.5" refY="5" markerWidth="7" markerHeight="7" orient="auto-start-reverse">
      <path d="M0,0 L10,5 L0,10 z" fill="#ffa726"/></marker>
    <marker id="arO" viewBox="0 0 10 10" refX="8.5" refY="5" markerWidth="7" markerHeight="7" orient="auto-start-reverse">
      <path d="M0,0 L10,5 L0,10 z" fill="#ff7043"/></marker>
    <marker id="arG" viewBox="0 0 10 10" refX="8.5" refY="5" markerWidth="7" markerHeight="7" orient="auto-start-reverse">
      <path d="M0,0 L10,5 L0,10 z" fill="#66bb6a"/></marker>
    <marker id="arW" viewBox="0 0 10 10" refX="8.5" refY="5" markerWidth="7" markerHeight="7" orient="auto-start-reverse">
      <path d="M0,0 L10,5 L0,10 z" fill="#ffffff"/></marker>
  </defs>
<rect width="980" height="520" rx="22" fill="url(#bg)"/>
<text x="60" y="60" font-family="Inter, 'Noto Sans CJK SC', 'PingFang SC', 'Microsoft YaHei', sans-serif" font-size="28" font-weight="800" fill="#ffffff" text-anchor="start" opacity="0" letter-spacing="-0.5">五代演化：一条越来越智能的高速路</text><rect x="40" y="400" width="900" height="64" rx="14" fill="#15101f" opacity="0.6"/><line x1="60" y1="432" x2="920" y2="432" stroke="#ffa726" stroke-width="3" stroke-dasharray="20 16" opacity="0.7"/><rect x="70.0" y="150" width="150" height="150" rx="14" ry="14" fill="rgba(255,255,255,0.05)" stroke="#ff7043" stroke-width="1.6" opacity="1"/><rect x="70.0" y="150" width="150" height="5" rx="2.5" fill="#ff7043"/><text x="145.0" y="180" font-family="Inter, 'Noto Sans CJK SC', 'PingFang SC', 'Microsoft YaHei', sans-serif" font-size="20" font-weight="700" fill="#ffffff" text-anchor="middle" opacity="1" letter-spacing="0">Prompt</text><text x="145.0" y="206" font-family="Inter, 'Noto Sans CJK SC', 'PingFang SC', 'Microsoft YaHei', sans-serif" font-size="13" font-weight="400" fill="#b39ddb" text-anchor="middle" opacity="1" letter-spacing="0">第一代</text><text x="145.0" y="223" font-family="Inter, 'Noto Sans CJK SC', 'PingFang SC', 'Microsoft YaHei', sans-serif" font-size="13" font-weight="400" fill="#b39ddb" text-anchor="middle" opacity="1" letter-spacing="0">会聊天的提示词</text><g transform="translate(145.0,382) scale(0.42)"><ellipse cx="0" cy="44" rx="108" ry="14" fill="#000000" opacity="0.28"/><rect x="-102" y="-14" width="204" height="44" rx="16" fill="#ff7043"/><path d="M -60 -14 L -42 -54 Q -36 -60 -28 -60 L 32 -60 Q 42 -60 50 -50 L 70 -14 Z" fill="#ff7043" opacity="0.95"/><path d="M -50 -18 L -36 -52 L 26 -52 L 42 -18 Z" fill="#1a0a2e" opacity="0.7"/><circle cx="-58" cy="30" r="21" fill="#15101f" stroke="#ff7043" stroke-width="4"/><circle cx="58" cy="30" r="21" fill="#15101f" stroke="#ff7043" stroke-width="4"/><circle cx="-58" cy="30" r="7" fill="#ff7043"/><circle cx="58" cy="30" r="7" fill="#ff7043"/><circle cx="94" cy="3" r="6" fill="#fff3e0"/></g><line x1="226.0" y1="382" x2="241.5" y2="382" stroke="url(#acc)" stroke-width="2.5" marker-end="url(#ar)" opacity="0.9"/><text x="145.0" y="456" font-family="Inter, 'Noto Sans CJK SC', 'PingFang SC', 'Microsoft YaHei', sans-serif" font-size="12.5" font-weight="600" fill="#ff7043" text-anchor="middle" opacity="1" letter-spacing="0">红绿灯：你问我答</text><rect x="247.5" y="150" width="150" height="150" rx="14" ry="14" fill="rgba(255,255,255,0.05)" stroke="#ffa726" stroke-width="1.6" opacity="1"/><rect x="247.5" y="150" width="150" height="5" rx="2.5" fill="#ffa726"/><text x="322.5" y="180" font-family="Inter, 'Noto Sans CJK SC', 'PingFang SC', 'Microsoft YaHei', sans-serif" font-size="20" font-weight="700" fill="#ffffff" text-anchor="middle" opacity="1" letter-spacing="0">Context</text><text x="322.5" y="206" font-family="Inter, 'Noto Sans CJK SC', 'PingFang SC', 'Microsoft YaHei', sans-serif" font-size="13" font-weight="400" fill="#b39ddb" text-anchor="middle" opacity="1" letter-spacing="0">第二代</text><text x="322.5" y="223" font-family="Inter, 'Noto Sans CJK SC', 'PingFang SC', 'Microsoft YaHei', sans-serif" font-size="13" font-weight="400" fill="#b39ddb" text-anchor="middle" opacity="1" letter-spacing="0">看得见上下文</text><g transform="translate(322.5,382) scale(0.42)"><ellipse cx="0" cy="44" rx="108" ry="14" fill="#000000" opacity="0.28"/><rect x="-102" y="-14" width="204" height="44" rx="16" fill="#ffa726"/><path d="M -60 -14 L -42 -54 Q -36 -60 -28 -60 L 32 -60 Q 42 -60 50 -50 L 70 -14 Z" fill="#ffa726" opacity="0.95"/><path d="M -50 -18 L -36 -52 L 26 -52 L 42 -18 Z" fill="#1a0a2e" opacity="0.7"/><circle cx="-58" cy="30" r="21" fill="#15101f" stroke="#ffa726" stroke-width="4"/><circle cx="58" cy="30" r="21" fill="#15101f" stroke="#ffa726" stroke-width="4"/><circle cx="-58" cy="30" r="7" fill="#ffa726"/><circle cx="58" cy="30" r="7" fill="#ffa726"/><circle cx="94" cy="3" r="6" fill="#fff3e0"/></g><line x1="403.5" y1="382" x2="419.0" y2="382" stroke="url(#acc)" stroke-width="2.5" marker-end="url(#ar)" opacity="0.9"/><text x="322.5" y="456" font-family="Inter, 'Noto Sans CJK SC', 'PingFang SC', 'Microsoft YaHei', sans-serif" font-size="12.5" font-weight="600" fill="#ffa726" text-anchor="middle" opacity="1" letter-spacing="0">挡风玻璃：该看的才看</text><rect x="425.0" y="150" width="150" height="150" rx="14" ry="14" fill="rgba(255,255,255,0.05)" stroke="#ffa726" stroke-width="1.6" opacity="1"/><rect x="425.0" y="150" width="150" height="5" rx="2.5" fill="#ffa726"/><text x="500.0" y="180" font-family="Inter, 'Noto Sans CJK SC', 'PingFang SC', 'Microsoft YaHei', sans-serif" font-size="20" font-weight="700" fill="#ffffff" text-anchor="middle" opacity="1" letter-spacing="0">Harness</text><text x="500.0" y="206" font-family="Inter, 'Noto Sans CJK SC', 'PingFang SC', 'Microsoft YaHei', sans-serif" font-size="13" font-weight="400" fill="#b39ddb" text-anchor="middle" opacity="1" letter-spacing="0">第三代</text><text x="500.0" y="223" font-family="Inter, 'Noto Sans CJK SC', 'PingFang SC', 'Microsoft YaHei', sans-serif" font-size="13" font-weight="400" fill="#b39ddb" text-anchor="middle" opacity="1" letter-spacing="0">能动手的整车系统</text><g transform="translate(500.0,382) scale(0.42)"><ellipse cx="0" cy="44" rx="108" ry="14" fill="#000000" opacity="0.28"/><rect x="-102" y="-14" width="204" height="44" rx="16" fill="#ffa726"/><path d="M -60 -14 L -42 -54 Q -36 -60 -28 -60 L 32 -60 Q 42 -60 50 -50 L 70 -14 Z" fill="#ffa726" opacity="0.95"/><path d="M -50 -18 L -36 -52 L 26 -52 L 42 -18 Z" fill="#1a0a2e" opacity="0.7"/><circle cx="-58" cy="30" r="21" fill="#15101f" stroke="#ffa726" stroke-width="4"/><circle cx="58" cy="30" r="21" fill="#15101f" stroke="#ffa726" stroke-width="4"/><circle cx="-58" cy="30" r="7" fill="#ffa726"/><circle cx="58" cy="30" r="7" fill="#ffa726"/><circle cx="94" cy="3" r="6" fill="#fff3e0"/></g><line x1="581.0" y1="382" x2="596.5" y2="382" stroke="url(#acc)" stroke-width="2.5" marker-end="url(#ar)" opacity="0.9"/><text x="500.0" y="456" font-family="Inter, 'Noto Sans CJK SC', 'PingFang SC', 'Microsoft YaHei', sans-serif" font-size="12.5" font-weight="600" fill="#ffa726" text-anchor="middle" opacity="1" letter-spacing="0">整车：记忆+工具+权限</text><rect x="602.5" y="150" width="150" height="150" rx="14" ry="14" fill="rgba(255,255,255,0.05)" stroke="#66bb6a" stroke-width="1.6" opacity="1"/><rect x="602.5" y="150" width="150" height="5" rx="2.5" fill="#66bb6a"/><text x="677.5" y="180" font-family="Inter, 'Noto Sans CJK SC', 'PingFang SC', 'Microsoft YaHei', sans-serif" font-size="20" font-weight="700" fill="#ffffff" text-anchor="middle" opacity="1" letter-spacing="0">Loop</text><text x="677.5" y="206" font-family="Inter, 'Noto Sans CJK SC', 'PingFang SC', 'Microsoft YaHei', sans-serif" font-size="13" font-weight="400" fill="#b39ddb" text-anchor="middle" opacity="1" letter-spacing="0">第四代</text><text x="677.5" y="223" font-family="Inter, 'Noto Sans CJK SC', 'PingFang SC', 'Microsoft YaHei', sans-serif" font-size="13" font-weight="400" fill="#b39ddb" text-anchor="middle" opacity="1" letter-spacing="0">自己跑的自动驾驶</text><g transform="translate(677.5,382) scale(0.42)"><ellipse cx="0" cy="44" rx="108" ry="14" fill="#000000" opacity="0.28"/><rect x="-102" y="-14" width="204" height="44" rx="16" fill="#66bb6a"/><path d="M -60 -14 L -42 -54 Q -36 -60 -28 -60 L 32 -60 Q 42 -60 50 -50 L 70 -14 Z" fill="#66bb6a" opacity="0.95"/><path d="M -50 -18 L -36 -52 L 26 -52 L 42 -18 Z" fill="#1a0a2e" opacity="0.7"/><circle cx="-58" cy="30" r="21" fill="#15101f" stroke="#66bb6a" stroke-width="4"/><circle cx="58" cy="30" r="21" fill="#15101f" stroke="#66bb6a" stroke-width="4"/><circle cx="-58" cy="30" r="7" fill="#66bb6a"/><circle cx="58" cy="30" r="7" fill="#66bb6a"/><circle cx="94" cy="3" r="6" fill="#fff3e0"/></g><line x1="758.5" y1="382" x2="774.0" y2="382" stroke="url(#acc)" stroke-width="2.5" marker-end="url(#ar)" opacity="0.9"/><text x="677.5" y="456" font-family="Inter, 'Noto Sans CJK SC', 'PingFang SC', 'Microsoft YaHei', sans-serif" font-size="12.5" font-weight="600" fill="#66bb6a" text-anchor="middle" opacity="1" letter-spacing="0">循环：想—做—看</text><rect x="780.0" y="150" width="150" height="150" rx="14" ry="14" fill="rgba(255,255,255,0.05)" stroke="#66bb6a" stroke-width="1.6" opacity="1"/><rect x="780.0" y="150" width="150" height="5" rx="2.5" fill="#66bb6a"/><text x="855.0" y="180" font-family="Inter, 'Noto Sans CJK SC', 'PingFang SC', 'Microsoft YaHei', sans-serif" font-size="20" font-weight="700" fill="#ffffff" text-anchor="middle" opacity="1" letter-spacing="0">Auto-Org</text><text x="855.0" y="206" font-family="Inter, 'Noto Sans CJK SC', 'PingFang SC', 'Microsoft YaHei', sans-serif" font-size="13" font-weight="400" fill="#b39ddb" text-anchor="middle" opacity="1" letter-spacing="0">第五代</text><text x="855.0" y="223" font-family="Inter, 'Noto Sans CJK SC', 'PingFang SC', 'Microsoft YaHei', sans-serif" font-size="13" font-weight="400" fill="#b39ddb" text-anchor="middle" opacity="1" letter-spacing="0">自进化的组织</text><g transform="translate(855.0,382) scale(0.42)"><ellipse cx="0" cy="44" rx="108" ry="14" fill="#000000" opacity="0.28"/><rect x="-102" y="-14" width="204" height="44" rx="16" fill="#66bb6a"/><path d="M -60 -14 L -42 -54 Q -36 -60 -28 -60 L 32 -60 Q 42 -60 50 -50 L 70 -14 Z" fill="#66bb6a" opacity="0.95"/><path d="M -50 -18 L -36 -52 L 26 -52 L 42 -18 Z" fill="#1a0a2e" opacity="0.7"/><circle cx="-58" cy="30" r="21" fill="#15101f" stroke="#66bb6a" stroke-width="4"/><circle cx="58" cy="30" r="21" fill="#15101f" stroke="#66bb6a" stroke-width="4"/><circle cx="-58" cy="30" r="7" fill="#66bb6a"/><circle cx="58" cy="30" r="7" fill="#66bb6a"/><circle cx="94" cy="3" r="6" fill="#fff3e0"/></g><text x="855.0" y="456" font-family="Inter, 'Noto Sans CJK SC', 'PingFang SC', 'Microsoft YaHei', sans-serif" font-size="12.5" font-weight="600" fill="#66bb6a" text-anchor="middle" opacity="1" letter-spacing="0">车队：多体自组织</text><text x="60" y="130" font-family="Inter, 'Noto Sans CJK SC', 'PingFang SC', 'Microsoft YaHei', sans-serif" font-size="12" font-weight="400" fill="#b39ddb" text-anchor="start" opacity="1" letter-spacing="0">起点</text><text x="920" y="130" font-family="Inter, 'Noto Sans CJK SC', 'PingFang SC', 'Microsoft YaHei', sans-serif" font-size="12" font-weight="400" fill="#b39ddb" text-anchor="end" opacity="1" letter-spacing="0">终点：自主进化</text>
<rect x="6" y="6" width="968" height="508" rx="18" fill="none" stroke="#7e57c2" stroke-width="1" opacity="0.5"/>
<text x="964" y="506" font-family="Inter, 'Noto Sans CJK SC', 'PingFang SC', 'Microsoft YaHei', sans-serif" font-size="11" font-weight="400" fill="#7e57c2" text-anchor="end" opacity="0.8" letter-spacing="0">智驾时代 · Agent 进化简史</text>
</svg>